<svg xmlns="http://www.w3.org/2000/svg" fill-rule="evenodd" stroke-linecap="round" stroke-linejoin="round" stroke-miterlimit="2" clip-rule="evenodd" viewBox="-5 -5 110 110">
    <g fill="none" stroke="#1e66f5" stroke-width="1.55">
        <path stroke-width="4.9869545" d="M92.577 31.287c-3.359 0-6.698-.499-9.62-2.16a25.116 25.116 0 0 0-25.095 0 16.986 16.986 0 0 1-17.052.03 23.06 23.06 0 0 0-12.506-3.395 23.017 23.017 0 0 0-12.677 3.408 15.25 15.25 0 0 1-7.944 2.252M92.577 52.691c-3.359 0-6.698-.498-9.62-2.159a25.116 25.116 0 0 0-25.095 0 16.986 16.986 0 0 1-17.052.03 23.06 23.06 0 0 0-12.506-3.395 23.017 23.017 0 0 0-12.677 3.407 15.25 15.25 0 0 1-7.944 2.252M92.577 74.096c-3.359 0-6.698-.499-9.62-2.159a25.116 25.116 0 0 0-25.095 0 16.986 16.986 0 0 1-17.052.029 23.06 23.06 0 0 0-12.506-3.394 23.017 23.017 0 0 0-12.677 3.407 15.25 15.25 0 0 1-7.944 2.252"/>
    </g>
</svg>
