<svg xmlns="http://www.w3.org/2000/svg" fill-rule="evenodd" stroke-linejoin="round" stroke-miterlimit="2" clip-rule="evenodd" viewBox="-5 -5 110 110">
    <g>
        <path fill="none" stroke="#ee99a0" stroke-width="4.89" d="M54.075 36.278c2.683-5.846 9.015-9.995 16.32-9.995 9.704 0 17.689 7.32 17.689 16.215v.006c0 8.895-7.985 16.215-17.689 16.215-3.149 0-6.117-.771-8.69-2.117" transform="translate(.068 -2.023) scale(1.02352)"/>
        <path fill="#ee99a0" fill-rule="nonzero" d="M96.158 23.751v.002c0 2.858-2.566 5.21-5.684 5.21s-5.684-2.352-5.684-5.21v-.002c0-2.858 2.566-5.21 5.684-5.21s5.684 2.352 5.684 5.21z" transform="translate(.068 -2.023) scale(1.02352)"/>
        <g fill="none" stroke="#ed8796" stroke-linecap="round" stroke-linejoin="miter" stroke-miterlimit="1.5">
            <path stroke-width="4.8822931" d="M51.669 54.864a17.713 17.713 0 0 0-17.713-17.713H13.428v35.427h20.528a17.714 17.714 0 0 0 17.713-17.713z" transform="translate(.068 -2.023) scale(1.02352)"/>
            <path stroke-width="4.89" d="M61.255 54.864A26.594 26.594 0 0 0 34.661 28.27H3.842v53.189h30.819a26.595 26.595 0 0 0 26.594-26.594z" transform="translate(.068 -2.023) scale(1.02352)"/>
        </g>
    </g>
</svg>
