<svg xmlns="http://www.w3.org/2000/svg" fill-rule="evenodd" stroke-miterlimit="1.5" clip-rule="evenodd" viewBox="-5 -5 110 110">
    <path fill="none" stroke="#e78284" stroke-width="5" d="m30.974 65.959-6.955 3.353a11.095 11.095 0 0 1-4.82 1.101H4.698V28.535H24.52a10.1 10.1 0 0 1 10.1 10.1v17.088c0 8.71 7.06 15.771 15.77 15.771h.008c8.71 0 15.771-7.061 15.771-15.771V28.506h19.056a10.077 10.077 0 0 1 10.077 10.077v.377c0 5.358-4.344 9.702-9.703 9.702H73.8h10.573c6.036 0 10.929 4.894 10.929 10.93v.017c0 2.054-.578 4.048-1.644 5.766"/>
    <path fill="#ea999c" d="M50 46.719c5.069 0 9.184 4.115 9.184 9.184S55.069 65.087 50 65.087s-9.184-4.115-9.184-9.184 4.115-9.184 9.184-9.184zm0 5c-2.309 0-4.184 1.875-4.184 4.184s1.875 4.184 4.184 4.184 4.184-1.875 4.184-4.184-1.875-4.184-4.184-4.184z"/>
    <circle cx="58.286" cy="44.14" r="2.5" fill="#ea999c"/>
    <path fill="none" stroke="#838ba7" stroke-miterlimit="4" stroke-width="5" d="M70.735 73.695v-8.88c.002-4.87 4.01-8.876 8.88-8.876s8.877 4.006 8.879 8.876v8.88m-23.679 0h29.599a2.974 2.974 0 0 1 2.96 2.96v17.759a2.974 2.974 0 0 1-2.96 2.96H64.815a2.975 2.975 0 0 1-2.96-2.96V76.655a2.975 2.975 0 0 1 2.96-2.96z"/>
</svg>
